<svg xmlns="http://www.w3.org/2000/svg" viewBox="0 0 144 144"><defs><style>.cls-1{fill:#353535;}.cls-2{fill:#fff;}</style></defs><g id="Camada_2" data-name="Camada 2"><g id="Camada_1-2" data-name="Camada 1"><rect class="cls-1" width="144" height="144" rx="10"/><g id="Camada_2-2" data-name="Camada 2"><g id="Camada_1-2-2" data-name="Camada 1-2"><path class="cls-2" d="M41.57,43.83H36.22v61c.22,7.47-.73,19.29-3.57,22.22-.39.41-.61.41-.72.41v5.35a6.23,6.23,0,0,0,4.56-2c5.39-5.56,5.18-22.58,5.08-26Z"/><path class="cls-2" d="M56,48.45V43.83H50.61v10.6A30.43,30.43,0,0,1,56,48.45Z"/><path class="cls-2" d="M112,70.41A30.78,30.78,0,0,0,81.34,41c-.91,0-1.81.05-2.71.12a30.78,30.78,0,0,1,28.06,29.28h0v30.67h5.35V70.41Z"/><path class="cls-2" d="M76,46.35A25.4,25.4,0,0,0,50.61,71.72v29.34H56V71.73a25.4,25.4,0,0,1,22.7-25.24A26.38,26.38,0,0,0,76,46.35Z"/><rect class="cls-2" x="36.28" y="11.16" width="5.35" height="8.21"/></g></g></g></g></svg>