<?xml version="1.0" encoding="utf-8"?>
<!-- Generator: Adobe Illustrator 25.0.0, SVG Export Plug-In . SVG Version: 6.00 Build 0)  -->
<svg version="1.1" id="Camada_1" xmlns="http://www.w3.org/2000/svg" xmlns:xlink="http://www.w3.org/1999/xlink" x="0px" y="0px"
	 viewBox="0 0 102 102" style="enable-background:new 0 0 102 102;" xml:space="preserve">
<style type="text/css">
	.st0{fill:#00D84F;}
	.st1{fill:#FFFFFF;}
</style>
<g id="Grupo_265" transform="translate(0.229)">
	<path id="Caminho_576" class="st0" d="M50.8,0c28.2,0,51,22.8,51,51s-22.8,51-51,51s-51-22.8-51-51S22.6,0,50.8,0z"/>
	<g id="Grupo_262" transform="translate(29.416 29)">
		<path id="Caminho_501" class="st1" d="M22,0C9.8,0,0,9.8,0,22s9.8,22,22,22s22-9.8,22-22C44,9.9,34.1,0,22,0z M22,39.6
			c-9.7,0-17.6-7.9-17.6-17.6S12.3,4.4,22,4.4S39.6,12.3,39.6,22c0,0,0,0,0,0C39.6,31.7,31.7,39.6,22,39.6z M24,20
			c-3.9-1.3-5.8-2.1-5.8-4.2c0-2.2,2.4-3.1,4-3.1c1.9-0.1,3.6,1.1,4.2,2.9l3.5-1.5c-0.9-2.6-3.2-4.5-5.9-4.9V6.6h-3.9v2.8
			c-3.2,0.5-5.7,3.2-5.8,6.5c0,5,4.9,6.4,7.4,7.3c3.5,1.2,5,2.4,5,4.5c0,2.5-2.3,3.5-4.4,3.5c-4,0-5.1-4.1-5.3-4.6L13.4,28
			c0.8,3.2,3.4,5.8,6.6,6.5v2.8h3.9v-2.7c1.1-0.2,6.6-1.3,6.6-7.1C30.6,24.5,29.2,21.8,24,20z"/>
	</g>
</g>
</svg>
