<svg xmlns="http://www.w3.org/2000/svg" width="102" height="102" viewBox="0 0 102 102">
  <g id="Grupo_265" data-name="Grupo 265" transform="translate(0.229)">
    <path id="Caminho_576" data-name="Caminho 576" d="M51,0A51,51,0,1,1,0,51,51,51,0,0,1,51,0Z" transform="translate(-0.229)" fill="#fff"/>
    <path id="Caminho_576_-_Contorno" data-name="Caminho 576 - Contorno" d="M51,1A50.013,50.013,0,0,0,31.538,97.071,50.013,50.013,0,0,0,70.462,4.929,49.686,49.686,0,0,0,51,1m0-1A51,51,0,1,1,0,51,51,51,0,0,1,51,0Z" transform="translate(-0.229)"/>
    <g id="Grupo_262" data-name="Grupo 262" transform="translate(29.416 29)">
      <path id="Caminho_501" data-name="Caminho 501" d="M24,2A22,22,0,1,0,46,24,22.008,22.008,0,0,0,24,2Zm0,39.6A17.6,17.6,0,1,1,41.6,24,17.623,17.623,0,0,1,24,41.6Zm1.958-19.58c-3.916-1.3-5.808-2.112-5.808-4.18,0-2.244,2.442-3.058,3.982-3.058a4.251,4.251,0,0,1,4.18,2.948l3.476-1.474a7.536,7.536,0,0,0-5.852-4.906V8.6h-3.85v2.772a6.785,6.785,0,0,0-5.764,6.512c0,4.994,4.95,6.4,7.37,7.282,3.476,1.232,5.016,2.354,5.016,4.466,0,2.486-2.31,3.542-4.356,3.542-4,0-5.148-4.114-5.28-4.6L15.42,30.05a8.881,8.881,0,0,0,6.644,6.512V39.4h3.85V36.672c1.144-.2,6.644-1.3,6.644-7.084C32.58,26.53,31.238,23.846,25.958,22.02Z" transform="translate(-2 -2)" fill="#00d84f"/>
    </g>
  </g>
</svg>
