<svg xmlns="http://www.w3.org/2000/svg" width="102" height="102" viewBox="0 0 102 102">
  <g id="Grupo_264" data-name="Grupo 264" transform="translate(0.113)">
    <circle id="Elipse_5" data-name="Elipse 5" cx="51" cy="51" r="51" transform="translate(-0.113)" fill="#fff"/>
    <path id="Elipse_5_-_Contorno" data-name="Elipse 5 - Contorno" d="M51,1A50.013,50.013,0,0,0,31.538,97.071,50.013,50.013,0,0,0,70.462,4.929,49.686,49.686,0,0,0,51,1m0-1A51,51,0,1,1,0,51,51,51,0,0,1,51,0Z" transform="translate(-0.113)"/>
    <path id="Caminho_498" data-name="Caminho 498" d="M20.4,26.537a2.788,2.788,0,1,1-2.788-2.788A2.789,2.789,0,0,1,20.4,26.537ZM31,23.749a2.788,2.788,0,1,0,2.788,2.788A2.789,2.789,0,0,0,31,23.749Zm15.615.558A22.307,22.307,0,1,1,24.307,2,22.315,22.315,0,0,1,46.613,24.307ZM21.318,6.729a17.822,17.822,0,0,0,15.258,8.655,18.617,18.617,0,0,0,2.989-.268A17.822,17.822,0,0,0,24.307,6.461,18.617,18.617,0,0,0,21.318,6.729ZM7.4,18.663a17.948,17.948,0,0,0,8.164-9.9A17.948,17.948,0,0,0,7.4,18.663Zm34.754,5.644a17.577,17.577,0,0,0-.736-5,22.988,22.988,0,0,1-4.841.535,22.306,22.306,0,0,1-17.31-8.231,22.343,22.343,0,0,1-12.8,12.38,1.457,1.457,0,0,1,0,.312,17.845,17.845,0,1,0,35.691,0Z" transform="translate(27.289 27)" fill="#00d84f"/>
  </g>
</svg>
