<?xml version="1.0" encoding="utf-8"?>
<!-- Generator: Adobe Illustrator 25.0.0, SVG Export Plug-In . SVG Version: 6.00 Build 0)  -->
<svg version="1.1" id="Camada_1" xmlns="http://www.w3.org/2000/svg" xmlns:xlink="http://www.w3.org/1999/xlink" x="0px" y="0px"
	 viewBox="0 0 102 102" style="enable-background:new 0 0 102 102;" xml:space="preserve">
<style type="text/css">
	.st0{fill:#00D84F;}
	.st1{fill:#FFFFFF;}
</style>
<g id="Grupo_264" transform="translate(0.113)">
	<circle id="Elipse_5" class="st0" cx="50.9" cy="51" r="51"/>
	<path id="Caminho_498" class="st1" d="M47.7,53.5c0,1.5-1.2,2.8-2.8,2.8c-1.5,0-2.8-1.2-2.8-2.8c0-1.5,1.2-2.8,2.8-2.8
		C46.4,50.7,47.7,52,47.7,53.5z M58.3,50.7c-1.5,0-2.8,1.2-2.8,2.8c0,1.5,1.2,2.8,2.8,2.8s2.8-1.2,2.8-2.8
		C61.1,52,59.8,50.7,58.3,50.7z M73.9,51.3c0,12.3-10,22.3-22.3,22.3s-22.3-10-22.3-22.3C29.3,39,39.3,29,51.6,29
		C63.9,29,73.9,39,73.9,51.3L73.9,51.3z M48.6,33.7c3.2,5.4,9,8.6,15.3,8.7c1,0,2-0.1,3-0.3c-3.2-5.4-9-8.6-15.3-8.7
		C50.6,33.5,49.6,33.6,48.6,33.7z M34.7,45.7c3.8-2.2,6.8-5.7,8.2-9.9C39,37.9,36.1,41.5,34.7,45.7z M69.4,51.3c0-1.7-0.3-3.4-0.7-5
		c-1.6,0.3-3.2,0.5-4.8,0.5c-6.7,0-13.1-3-17.3-8.2c-2.4,5.7-7,10.2-12.8,12.4c0,0.1,0,0.2,0,0.3c0,9.9,8,17.8,17.8,17.8
		S69.4,61.2,69.4,51.3L69.4,51.3z"/>
</g>
</svg>
