<svg xmlns="http://www.w3.org/2000/svg" width="102" height="102" viewBox="0 0 102 102">
  <g id="Grupo_377" data-name="Grupo 377" transform="translate(-909 -177)">
    <circle id="Elipse_4" data-name="Elipse 4" cx="51" cy="51" r="51" transform="translate(909 177)" fill="#fff"/>
    <path id="Elipse_4_-_Contorno" data-name="Elipse 4 - Contorno" d="M51,1A50.013,50.013,0,0,0,31.538,97.071,50.013,50.013,0,0,0,70.462,4.929,49.686,49.686,0,0,0,51,1m0-1A51,51,0,1,1,0,51,51,51,0,0,1,51,0Z" transform="translate(909 177)"/>
    <g id="Grupo_376" data-name="Grupo 376" transform="translate(940.121 204.393)">
      <path id="Caminho_569" data-name="Caminho 569" d="M23.88,8.983V44.245A14.76,14.76,0,0,1,8.97,29.658,14.327,14.327,0,0,1,13.319,19.37L23.88,8.983M23.88,2,9.84,15.817h0A19.4,19.4,0,0,0,4,29.658,19.712,19.712,0,0,0,23.88,49.215,19.712,19.712,0,0,0,43.76,29.658a19.4,19.4,0,0,0-5.84-13.841h0Z" transform="translate(-4 -2)" fill="#00d84f"/>
    </g>
  </g>
</svg>
