<?xml version="1.0" encoding="utf-8"?>
<!-- Generator: Adobe Illustrator 25.0.0, SVG Export Plug-In . SVG Version: 6.00 Build 0)  -->
<svg version="1.1" id="Camada_1" xmlns="http://www.w3.org/2000/svg" xmlns:xlink="http://www.w3.org/1999/xlink" x="0px" y="0px"
	 viewBox="0 0 102 102" style="enable-background:new 0 0 102 102;" xml:space="preserve">
<style type="text/css">
	.st0{fill:#00D84F;}
	.st1{fill:#FFFFFF;}
</style>
<g id="Grupo_377" transform="translate(-909 -177)">
	<circle id="Elipse_4" class="st0" cx="960" cy="228" r="51"/>
	<g id="Grupo_376" transform="translate(940.121 204.393)">
		<path id="Caminho_569" class="st1" d="M19.9,7v35.3C11.7,42.3,5.1,35.8,5,27.7c0-3.9,1.6-7.6,4.3-10.3L19.9,7 M19.9,0l-14,13.8
			l0,0C2.1,17.5,0,22.4,0,27.7c0.1,10.9,9,19.6,19.9,19.6c0,0,0,0,0,0c10.9,0.1,19.8-8.7,19.9-19.5c0,0,0,0,0,0
			c0-5.2-2.1-10.2-5.8-13.8l0,0L19.9,0z"/>
	</g>
</g>
</svg>
