<svg xmlns="http://www.w3.org/2000/svg" width="40" height="40" viewBox="0 0 40 40">
  <g id="Grupo_402" data-name="Grupo 402" transform="translate(-5015.98 -843.98)">
    <g id="Elipse_7" data-name="Elipse 7" transform="translate(5015.98 843.98)" fill="none" stroke="#202020" stroke-width="1">
      <circle cx="20" cy="20" r="20" stroke="none"/>
      <circle cx="20" cy="20" r="19.5" fill="none"/>
    </g>
    <g id="Grupo_401" data-name="Grupo 401" transform="translate(5026.785 852.695)">
      <path id="Caminho_577" data-name="Caminho 577" d="M13.6.5a1.344,1.344,0,0,0-1.343,1.343v9.992l-1.791-1.79a1.343,1.343,0,0,0-1.895,1.9l4.074,4.074a1.3,1.3,0,0,0,.936.394h.011a1.355,1.355,0,0,0,.956-.39l4.083-4.083a1.343,1.343,0,0,0-1.9-1.895l-1.787,1.787V1.843A1.344,1.344,0,0,0,13.6.5Z" transform="translate(-4.096 -0.5)" fill="#202020"/>
      <path id="Caminho_578" data-name="Caminho 578" d="M3.635,19.6a1.344,1.344,0,0,0-1.343,1.343v1.486a5.427,5.427,0,0,0,5.421,5.421h8.157a5.427,5.427,0,0,0,5.421-5.421V20.939a1.343,1.343,0,0,0-2.685,0v1.486a2.739,2.739,0,0,1-2.736,2.736H7.713a2.739,2.739,0,0,1-2.736-2.736V20.939A1.344,1.344,0,0,0,3.635,19.6Z" transform="translate(-2.292 -6.362)" fill="#202020"/>
    </g>
  </g>
</svg>
