<?xml version="1.0" encoding="utf-8"?>
<!-- Generator: Adobe Illustrator 25.0.0, SVG Export Plug-In . SVG Version: 6.00 Build 0)  -->
<svg version="1.1" id="Camada_1" xmlns="http://www.w3.org/2000/svg" xmlns:xlink="http://www.w3.org/1999/xlink" x="0px" y="0px"
	 viewBox="0 0 102 102" style="enable-background:new 0 0 102 102;" xml:space="preserve">
<style type="text/css">
	.st0{fill:#00D84F;}
	.st1{fill:#FFFFFF;}
</style>
<g id="Grupo_381" transform="translate(-661 -177)">
	<circle id="Elipse_4" class="st0" cx="712" cy="228" r="51"/>
	<g id="Grupo_380" transform="translate(689 205)">
		<g id="Grupo_379">
			<path id="Caminho_570" class="st1" d="M4.2,6.3c0-1.2,0.9-2.1,2.1-2.1h4.2V0H6.3C2.8,0,0,2.8,0,6.3c0,0,0,0,0,0v4.2h4.2V6.3z"/>
			<path id="Caminho_571" class="st1" d="M4.2,40.1v-4.2H0v4.2c0,3.5,2.8,6.3,6.3,6.3c0,0,0,0,0,0h4.2v-4.2H6.3
				C5.2,42.2,4.2,41.3,4.2,40.1z"/>
			<path id="Caminho_572" class="st1" d="M40.1,0h-4.2v4.2h4.2c1.2,0,2.1,0.9,2.1,2.1v4.2h4.2V6.3C46.4,2.8,43.6,0,40.1,0
				C40.1,0,40.1,0,40.1,0z"/>
			<path id="Caminho_573" class="st1" d="M42.2,40.1c0,1.2-0.9,2.1-2.1,2.1h-4.2v4.2h4.2c3.5,0,6.3-2.8,6.3-6.3c0,0,0,0,0,0v-4.2
				h-4.2V40.1z"/>
			<path id="Caminho_574" class="st1" d="M38,29.3V17.2c0-1.5-0.8-2.9-2.1-3.7L25.3,7.4c-1.3-0.8-2.9-0.8-4.2,0l-10.6,6.1
				c-1.3,0.8-2.1,2.2-2.1,3.7v12.1c0,1.5,0.8,2.9,2.1,3.6L21.1,39c1.3,0.8,2.9,0.8,4.2,0l10.5-6.1C37.2,32.2,38,30.8,38,29.3z
				 M21.1,34.1l-8.4-4.9v-9.8l8.4,4.9V34.1z M23.2,20.8l-8.4-4.9l8.4-4.8l8.4,4.8L23.2,20.8z M33.8,29.3l-8.4,4.9v-9.7l8.4-4.9V29.3
				z"/>
		</g>
	</g>
</g>
</svg>
