<svg xmlns="http://www.w3.org/2000/svg" viewBox="0 0 35.38 35.38"><g id="Camada_2" data-name="Camada 2"><g id="ELEMENTS"><path d="M21.83,9.25H13.55a4.28,4.28,0,0,0-4.28,4.28v8.28a4.28,4.28,0,0,0,4.28,4.28h8.28a4.28,4.28,0,0,0,4.28-4.28V13.53A4.28,4.28,0,0,0,21.83,9.25Zm-4,13.52a5.11,5.11,0,1,1,5.1-5.1A5.11,5.11,0,0,1,17.78,22.77Zm5.4-9.34a1.22,1.22,0,1,1,1.22-1.22A1.21,1.21,0,0,1,23.18,13.43Z"/><path d="M17.78,14.39a3.28,3.28,0,1,0,3.27,3.28A3.28,3.28,0,0,0,17.78,14.39Z"/><path d="M17.69,0A17.69,17.69,0,1,0,35.38,17.69,17.69,17.69,0,0,0,17.69,0ZM28.06,21.81A6.24,6.24,0,0,1,21.83,28H13.55a6.24,6.24,0,0,1-6.23-6.23V13.53a6.24,6.24,0,0,1,6.23-6.24h8.28a6.24,6.24,0,0,1,6.23,6.24Z"/></g></g></svg>