<?xml version="1.0" encoding="utf-8"?>
<!-- Generator: Adobe Illustrator 25.0.0, SVG Export Plug-In . SVG Version: 6.00 Build 0)  -->
<svg version="1.1" id="Camada_1" xmlns="http://www.w3.org/2000/svg" xmlns:xlink="http://www.w3.org/1999/xlink" x="0px" y="0px"
	 viewBox="0 0 604.7 240.2" style="enable-background:new 0 0 604.7 240.2;" xml:space="preserve">
<style type="text/css">
	.st0{enable-background:new    ;}
	.st1{fill:#333333;}
	.st2{fill:#676767;}
</style>
<g id="Camada_2_1_">
	<g id="Camada_1-2">
		<g class="st0">
			<path class="st1" d="M240.2,194h-13L203.7,69.5h-0.4V194h-11.4V45.5H209l24.4,130.9h0.4l24.6-130.9h17.4V194h-11.4V68.4H264
				L240.2,194z"/>
			<path class="st1" d="M296.7,71.9c0-15.8,12.8-28.6,28.6-28.6s28.6,12.8,28.6,28.6v95.7c0,15.8-12.8,28.6-28.6,28.6
				s-28.6-12.8-28.6-28.6V71.9z M308.2,167.6c0,9.5,7.7,17.2,17.2,17.2s17.2-7.7,17.2-17.2V71.9c0-9.5-7.7-17.2-17.2-17.2
				s-17.2,7.7-17.2,17.2V167.6z M314.6,36.7V25.3l21.6-9.7V27L314.6,36.7z"/>
			<path class="st1" d="M419.9,45.5h11.4L408.7,194h-19.4L366.7,45.5h11.4l20.7,135.7h0.4L419.9,45.5z"/>
			<path class="st1" d="M456.7,56.9v57h26.6v11.7h-26.6v57h37.8V194h-49.3V45.5h47.5v11.4H456.7z"/>
			<path class="st1" d="M510.1,194V45.5h11.4V194H510.1z"/>
			<path class="st1" d="M546.6,100.3c0,0-6.6-7.9-6.6-18.5v-9.9c0-15.8,12.8-28.6,28.6-28.6s28.6,12.8,28.6,28.6v18.5l-11.4,1.3
				V71.9c0-9.5-7.7-17.2-17.2-17.2s-17.2,7.7-17.2,17.2v9.9c0,6.4,4,11,4,11l35,41.6c0,0,6.8,8.1,6.8,18.9v14.3
				c0,15.8-12.8,28.6-28.6,28.6S540,183.4,540,167.6v-21.8l11.4-1.3v23.1c0,9.5,7.7,17.2,17.2,17.2s17.2-7.7,17.2-17.2v-14.3
				c0-6.4-4.2-11.4-4.2-11.4L546.6,100.3z"/>
		</g>
		<path class="st2" d="M0,0v240.2h164.4V0H0z M46.6,73.3h8.9V81c-3.4,2.9-6.4,6.3-8.9,9.9V73.3z M23.1,217.9
			c-1.9,2.1-4.7,3.3-7.6,3.4v-8.9c0.2,0,0.5,0,1.2-0.7c4.7-4.9,6.3-24.5,5.9-36.9V73.3h8.9v101.3C31.8,180.4,32.1,208.7,23.1,217.9z
			 M31.7,32.6h-8.9V19h8.9V32.6z M55.5,119.7v48.8h-8.9v-48.8c0-23.3,18.9-42.2,42.2-42.2c1.5,0,3,0.1,4.4,0.2
			C71.8,80,55.5,98.1,55.5,119.7z M148.8,168.5h-8.9v-48.8l0,0v-2.2l0,0c-1.2-25.6-21.1-46.5-46.7-48.7c1.5-0.1,3-0.2,4.5-0.2
			c27.3,0.1,49.8,21.6,51,48.9h0.1L148.8,168.5z"/>
	</g>
</g>
</svg>
