<svg xmlns="http://www.w3.org/2000/svg" viewBox="0 0 39 29"><defs><style>.cls-1{fill:#00d84f;}.cls-2{isolation:isolate;}.cls-3{fill:#fff;}</style></defs><g id="Camada_2" data-name="Camada 2"><g id="Camada_1-2" data-name="Camada 1"><g id="Grupo_335" data-name="Grupo 335"><rect id="Retângulo_678" data-name="Retângulo 678" class="cls-1" width="39" height="29" rx="5"/><g class="cls-2"><path class="cls-3" d="M16.38,17.27a1.42,1.42,0,0,0-.37-1,3.57,3.57,0,0,0-1.3-.75,7.14,7.14,0,0,1-2.62-1.38,2.88,2.88,0,0,1-.85-2.22,2.89,2.89,0,0,1,.85-2.16,3.73,3.73,0,0,1,2.31-1V7.07h1.25v1.7a3.46,3.46,0,0,1,2.2,1.09,3.32,3.32,0,0,1,.77,2.35v0H16.38A2,2,0,0,0,16,10.94a1.36,1.36,0,0,0-1.08-.46,1.31,1.31,0,0,0-1.06.39,1.52,1.52,0,0,0-.33,1,1.33,1.33,0,0,0,.35,1,4,4,0,0,0,1.33.77A6.85,6.85,0,0,1,17.79,15a2.92,2.92,0,0,1,.86,2.24,2.91,2.91,0,0,1-.84,2.18,3.82,3.82,0,0,1-2.32,1v1.54H14.25V20.39a4.12,4.12,0,0,1-2.47-1,3.14,3.14,0,0,1-.93-2.53l0-.05h2.22a1.81,1.81,0,0,0,.49,1.43,1.87,1.87,0,0,0,1.27.42A1.59,1.59,0,0,0,16,18.29,1.38,1.38,0,0,0,16.38,17.27Z"/><path class="cls-3" d="M25.88,17.27a1.42,1.42,0,0,0-.37-1,3.57,3.57,0,0,0-1.3-.75,7.14,7.14,0,0,1-2.62-1.38,2.88,2.88,0,0,1-.85-2.22,2.89,2.89,0,0,1,.85-2.16,3.73,3.73,0,0,1,2.31-1V7.07h1.25v1.7a3.46,3.46,0,0,1,2.2,1.09,3.32,3.32,0,0,1,.77,2.35v0H25.88a2,2,0,0,0-.39-1.31,1.36,1.36,0,0,0-1.08-.46,1.31,1.31,0,0,0-1.06.39,1.52,1.52,0,0,0-.33,1,1.33,1.33,0,0,0,.35,1,4,4,0,0,0,1.33.77A6.85,6.85,0,0,1,27.29,15a2.92,2.92,0,0,1,.86,2.24,2.91,2.91,0,0,1-.84,2.18,3.82,3.82,0,0,1-2.32,1v1.54H23.75V20.39a4.12,4.12,0,0,1-2.47-1,3.14,3.14,0,0,1-.93-2.53l0-.05h2.22a1.81,1.81,0,0,0,.49,1.43,1.87,1.87,0,0,0,1.27.42,1.59,1.59,0,0,0,1.15-.37A1.38,1.38,0,0,0,25.88,17.27Z"/></g></g></g></g></svg>