<svg xmlns="http://www.w3.org/2000/svg" viewBox="0 0 85.74 110.23"><defs><style>.cls-1{fill:#fff;}</style></defs><g id="Camada_2" data-name="Camada 2"><g id="Camada_1-2" data-name="Camada 1"><path id="Caminho_627" data-name="Caminho 627" class="cls-1" d="M6.13,98A12.29,12.29,0,0,0,18.4,110.23h49A12.27,12.27,0,0,0,79.62,98V36.74A12.27,12.27,0,0,0,67.36,24.48h-49A12.28,12.28,0,0,0,6.11,36.74ZM25.55,50a6.09,6.09,0,0,1,8.62,0h0l8.7,8.69L51.58,50a6.1,6.1,0,0,1,8.63,8.63l-8.69,8.7,8.69,8.69a6.11,6.11,0,0,1-8.63,8.64L42.88,76l-8.7,8.7a6.11,6.11,0,1,1-8.63-8.64h0l8.7-8.7-8.7-8.69a6.1,6.1,0,0,1,0-8.62v0ZM64.3,6.13,60,1.77A6.18,6.18,0,0,0,55.66,0H30.07a6.2,6.2,0,0,0-4.29,1.77L21.44,6.13H6.13a6.13,6.13,0,0,0,0,12.26H79.6a6.13,6.13,0,1,0,0-12.26H64.3Z"/></g></g></svg>